<?xml version="1.0" encoding="UTF-8" standalone="no"?>
<!-- Created with Inkscape (http://www.inkscape.org/) -->

<svg
   width="35.71875mm"
   height="10.583333mm"
   viewBox="0 0 35.71875 10.583333"
   version="1.1"
   id="svg1"
   xml:space="preserve"
   xmlns="http://www.w3.org/2000/svg"
   xmlns:svg="http://www.w3.org/2000/svg"><defs
     id="defs1" /><g
     id="layer1"
     transform="translate(-87.287257,-143.20833)"><g
       id="g1"
       transform="matrix(0.26458333,0,0,0.26458333,87.287257,143.20833)"><path
         d="M 130,40 H 5 C 2.2,40 0,37.8 0,35 V 5 C 0,2.2 2.2,0 5,0 h 125 c 2.8,0 5,2.2 5,5 v 30 c 0,2.8 -2.2,5 -5,5 z"
         id="path1" /><path
         class="st0"
         d="m 130,0.8 c 2.3,0 4.2,1.9 4.2,4.2 v 30 c 0,2.3 -1.9,4.2 -4.2,4.2 H 5 C 2.7,39.2 0.8,37.3 0.8,35 V 5 C 0.8,2.7 2.7,0.8 5,0.8 H 130 M 130,0 H 5 C 2.2,0 0,2.3 0,5 v 30 c 0,2.8 2.2,5 5,5 h 125 c 2.8,0 5,-2.2 5,-5 V 5 c 0,-2.7 -2.2,-5 -5,-5 z"
         id="path2" /><path
         class="st1"
         d="m 47.4,10.2 c 0,0.8 -0.2,1.5 -0.7,2 -0.6,0.6 -1.3,0.9 -2.2,0.9 -0.9,0 -1.6,-0.3 -2.2,-0.9 -0.6,-0.6 -0.9,-1.3 -0.9,-2.2 0,-0.9 0.3,-1.6 0.9,-2.2 0.6,-0.6 1.3,-0.9 2.2,-0.9 0.4,0 0.8,0.1 1.2,0.3 0.4,0.2 0.7,0.4 0.9,0.7 L 46.1,8.4 C 45.7,7.9 45.2,7.7 44.5,7.7 c -0.6,0 -1.2,0.2 -1.6,0.7 -0.5,0.4 -0.7,1 -0.7,1.7 0,0.7 0.2,1.3 0.7,1.7 0.5,0.4 1,0.7 1.6,0.7 0.7,0 1.2,-0.2 1.7,-0.7 0.3,-0.3 0.5,-0.7 0.5,-1.2 H 44.5 V 9.8 h 2.9 z M 52,7.7 h -2.7 v 1.9 h 2.5 v 0.7 h -2.5 v 1.9 H 52 V 13 H 48.5 V 7 H 52 Z M 55.3,13 H 54.5 V 7.7 H 52.8 V 7 H 57 v 0.7 h -1.7 z m 4.6,0 V 7 h 0.8 v 6 z m 4.2,0 H 63.3 V 7.7 H 61.6 V 7 h 4.1 V 7.7 H 64 V 13 Z m 9.5,-0.8 c -0.6,0.6 -1.3,0.9 -2.2,0.9 -0.9,0 -1.6,-0.3 -2.2,-0.9 -0.6,-0.6 -0.9,-1.3 -0.9,-2.2 0,-0.9 0.3,-1.6 0.9,-2.2 0.6,-0.6 1.3,-0.9 2.2,-0.9 0.9,0 1.6,0.3 2.2,0.9 0.6,0.6 0.9,1.3 0.9,2.2 0,0.9 -0.3,1.6 -0.9,2.2 z m -3.8,-0.5 c 0.4,0.4 1,0.7 1.6,0.7 0.6,0 1.2,-0.2 1.6,-0.7 0.4,-0.4 0.7,-1 0.7,-1.7 C 73.7,9.3 73.5,8.7 73,8.3 72.6,7.9 72,7.6 71.4,7.6 c -0.6,0 -1.2,0.2 -1.6,0.7 -0.4,0.4 -0.7,1 -0.7,1.7 0,0.7 0.2,1.3 0.7,1.7 z M 75.6,13 V 7 h 0.9 l 2.9,4.7 V 7 h 0.8 v 6 H 79.4 L 76.3,8.1 V 13 Z"
         id="path3" /><path
         class="st2"
         d="m 68.1,21.8 c -2.4,0 -4.3,1.8 -4.3,4.3 0,2.4 1.9,4.3 4.3,4.3 2.4,0 4.3,-1.8 4.3,-4.3 0,-2.6 -1.9,-4.3 -4.3,-4.3 z m 0,6.8 c -1.3,0 -2.4,-1.1 -2.4,-2.6 0,-1.5 1.1,-2.6 2.4,-2.6 1.3,0 2.4,1 2.4,2.6 0,1.5 -1.1,2.6 -2.4,2.6 z m -9.3,-6.8 c -2.4,0 -4.3,1.8 -4.3,4.3 0,2.4 1.9,4.3 4.3,4.3 2.4,0 4.3,-1.8 4.3,-4.3 0,-2.6 -1.9,-4.3 -4.3,-4.3 z m 0,6.8 c -1.3,0 -2.4,-1.1 -2.4,-2.6 0,-1.5 1.1,-2.6 2.4,-2.6 1.3,0 2.4,1 2.4,2.6 0,1.5 -1.1,2.6 -2.4,2.6 z M 47.7,23.1 v 1.8 H 52 c -0.1,1 -0.5,1.8 -1,2.3 -0.6,0.6 -1.6,1.3 -3.3,1.3 -2.7,0 -4.7,-2.1 -4.7,-4.8 0,-2.7 2.1,-4.8 4.7,-4.8 1.4,0 2.5,0.6 3.3,1.3 l 1.3,-1.3 c -1.1,-1 -2.5,-1.8 -4.5,-1.8 -3.6,0 -6.7,3 -6.7,6.6 0,3.6 3.1,6.6 6.7,6.6 2,0 3.4,-0.6 4.6,-1.9 1.2,-1.2 1.6,-2.9 1.6,-4.2 0,-0.4 0,-0.8 -0.1,-1.1 z m 45.4,1.4 c -0.4,-1 -1.4,-2.7 -3.6,-2.7 -2.2,0 -4,1.7 -4,4.3 0,2.4 1.8,4.3 4.2,4.3 1.9,0 3.1,-1.2 3.5,-1.9 l -1.4,-1 c -0.5,0.7 -1.1,1.2 -2.1,1.2 -1,0 -1.6,-0.4 -2.1,-1.3 L 93.3,25 Z m -5.8,1.4 c 0,-1.6 1.3,-2.5 2.2,-2.5 0.7,0 1.4,0.4 1.6,0.9 z M 82.6,30 h 1.9 V 17.5 h -1.9 z m -3,-7.3 c -0.5,-0.5 -1.3,-1 -2.3,-1 -2.1,0 -4.1,1.9 -4.1,4.3 0,2.4 1.9,4.2 4.1,4.2 1,0 1.8,-0.5 2.2,-1 h 0.1 v 0.6 c 0,1.6 -0.9,2.5 -2.3,2.5 -1.1,0 -1.9,-0.8 -2.1,-1.5 l -1.6,0.7 c 0.5,1.1 1.7,2.5 3.8,2.5 2.2,0 4,-1.3 4,-4.4 V 22 h -1.8 z m -2.2,5.9 C 76.1,28.6 75,27.5 75,26 c 0,-1.5 1.1,-2.6 2.4,-2.6 1.3,0 2.3,1.1 2.3,2.6 0,1.5 -1,2.6 -2.3,2.6 z M 101.8,17.5 H 97.3 V 30 h 1.9 v -4.7 h 2.6 c 2.1,0 4.1,-1.5 4.1,-3.9 0,-2.4 -2,-3.9 -4.1,-3.9 z m 0.1,6 h -2.7 v -4.3 h 2.7 c 1.4,0 2.2,1.2 2.2,2.1 -0.1,1.1 -0.9,2.2 -2.2,2.2 z m 11.5,-1.8 c -1.4,0 -2.8,0.6 -3.3,1.9 l 1.7,0.7 c 0.4,-0.7 1,-0.9 1.7,-0.9 1,0 1.9,0.6 2,1.6 v 0.1 c -0.3,-0.2 -1.1,-0.5 -1.9,-0.5 -1.8,0 -3.6,1 -3.6,2.8 0,1.7 1.5,2.8 3.1,2.8 1.3,0 1.9,-0.6 2.4,-1.2 h 0.1 v 1 h 1.8 v -4.8 c -0.2,-2.2 -1.9,-3.5 -4,-3.5 z m -0.2,6.9 c -0.6,0 -1.5,-0.3 -1.5,-1.1 0,-1 1.1,-1.3 2,-1.3 0.8,0 1.2,0.2 1.7,0.4 -0.2,1.2 -1.2,2 -2.2,2 z m 10.5,-6.6 -2.1,5.4 h -0.1 L 119.3,22 h -2 l 3.3,7.6 -1.9,4.2 h 1.9 L 125.7,22 Z m -16.8,8 h 1.9 V 17.5 h -1.9 z"
         id="path4" /><g
         id="g23"><linearGradient
           id="SVGID_1_"
           gradientUnits="userSpaceOnUse"
           x1="21.799999"
           y1="33.290001"
           x2="5.0170002"
           y2="16.507999"
           gradientTransform="matrix(1,0,0,-1,0,42)"><stop
             offset="0"
             stop-color="#00a0ff"
             id="stop4" /><stop
             offset=".007"
             stop-color="#00a1ff"
             id="stop5" /><stop
             offset=".26"
             stop-color="#00beff"
             id="stop6" /><stop
             offset=".512"
             stop-color="#00d2ff"
             id="stop7" /><stop
             offset=".76"
             stop-color="#00dfff"
             id="stop8" /><stop
             offset="1"
             stop-color="#00e3ff"
             id="stop9" /></linearGradient><path
           class="st3"
           d="M 10.4,7.5 C 10.1,7.8 10,8.3 10,8.9 V 31 c 0,0.6 0.2,1.1 0.5,1.4 L 10.6,32.5 23,20.1 v -0.2 z"
           id="path9"
           style="fill:url(#SVGID_1_)" /><linearGradient
           id="SVGID_2_"
           gradientUnits="userSpaceOnUse"
           x1="33.834"
           y1="21.999001"
           x2="9.6370001"
           y2="21.999001"
           gradientTransform="matrix(1,0,0,-1,0,42)"><stop
             offset="0"
             stop-color="#ffe000"
             id="stop10" /><stop
             offset=".409"
             stop-color="#ffbd00"
             id="stop11" /><stop
             offset=".775"
             stop-color="orange"
             id="stop12" /><stop
             offset="1"
             stop-color="#ff9c00"
             id="stop13" /></linearGradient><path
           class="st4"
           d="m 27,24.3 -4.1,-4.1 v -0.3 l 4.1,-4.1 0.1,0.1 4.9,2.8 c 1.4,0.8 1.4,2.1 0,2.9 z"
           id="path13"
           style="fill:url(#SVGID_2_)" /><linearGradient
           id="SVGID_3_"
           gradientUnits="userSpaceOnUse"
           x1="24.827"
           y1="19.704"
           x2="2.069"
           y2="-3.0539999"
           gradientTransform="matrix(1,0,0,-1,0,42)"><stop
             offset="0"
             stop-color="#ff3a44"
             id="stop14" /><stop
             offset="1"
             stop-color="#c31162"
             id="stop15" /></linearGradient><path
           class="st5"
           d="M 27.1,24.2 22.9,20 10.4,32.5 c 0.5,0.5 1.2,0.5 2.1,0.1 l 14.6,-8.4"
           id="path15"
           style="fill:url(#SVGID_3_)" /><linearGradient
           id="SVGID_4_"
           gradientUnits="userSpaceOnUse"
           x1="7.2969999"
           y1="41.824001"
           x2="17.459999"
           y2="31.660999"
           gradientTransform="matrix(1,0,0,-1,0,42)"><stop
             offset="0"
             stop-color="#32a071"
             id="stop16" /><stop
             offset=".069"
             stop-color="#2da771"
             id="stop17" /><stop
             offset=".476"
             stop-color="#15cf74"
             id="stop18" /><stop
             offset=".801"
             stop-color="#06e775"
             id="stop19" /><stop
             offset="1"
             stop-color="#00f076"
             id="stop20" /></linearGradient><path
           class="st6"
           d="M 27.1,15.8 12.5,7.5 C 11.6,7 10.9,7.1 10.4,7.6 L 22.9,20 Z"
           id="path20"
           style="fill:url(#SVGID_4_)" /><path
           class="st7"
           d="m 27,24.1 -14.5,8.2 c -0.8,0.5 -1.5,0.4 -2,0 l -0.1,0.1 0.1,0.1 c 0.5,0.4 1.2,0.5 2,0 z"
           id="path21" /><path
           class="st8"
           d="M 10.4,32.3 C 10.1,32 10,31.5 10,30.9 V 31 c 0,0.6 0.2,1.1 0.5,1.4 v -0.1 z m 21.6,-11 -5,2.8 0.1,0.1 4.9,-2.8 c 0.7,-0.4 1,-0.9 1,-1.4 0,0.5 -0.4,0.9 -1,1.3 z"
           id="path22" /><path
           class="st9"
           d="M 12.5,7.6 32,18.7 c 0.6,0.4 1,0.8 1,1.3 0,-0.5 -0.3,-1 -1,-1.4 L 12.5,7.5 C 11.1,6.7 10,7.3 10,8.9 V 9 c 0,-1.5 1.1,-2.2 2.5,-1.4 z"
           id="path23" /></g></g></g><style
     id="style1">.st0{fill:#a6a6a6}.st1{stroke:#ffffff;stroke-width:.2;stroke-miterlimit:10}.st1,.st2{fill:#fff}.st3{fill:url(#SVGID_1_)}.st4{fill:url(#SVGID_2_)}.st5{fill:url(#SVGID_3_)}.st6{fill:url(#SVGID_4_)}.st7,.st8,.st9{opacity:.2;enable-background:new}.st8,.st9{opacity:.12}.st9{opacity:.25;fill:#fff}</style></svg>
